HIERARCHY
ROOT joint_0
{
	OFFSET 0.000000 0.000000 0.000000
	CHANNELS 6 Xposition Yposition Zposition Zrotation Yrotation Xrotation 
	JOINT joint_1
	{
		OFFSET 7.745728 2.152245 124.869995
		CHANNELS 3 Zrotation Yrotation Xrotation
		JOINT joint_2
		{
			OFFSET -6.359406 2.617477 113.975952
			CHANNELS 3 Zrotation Yrotation Xrotation
			JOINT joint_3
			{
				OFFSET -8.187927 3.340103 113.713013
				CHANNELS 3 Zrotation Yrotation Xrotation
				JOINT joint_4
				{
					OFFSET 2.859222 5.755905 159.680054
					CHANNELS 3 Zrotation Yrotation Xrotation
					JOINT joint_5
					{
						OFFSET 22.724274 2.598469 88.906982
						CHANNELS 3 Zrotation Yrotation Xrotation
						End Site
						{
							OFFSET 0.000000 0.000000 0.000000
						}
					}
				}
				JOINT joint_6
				{
					OFFSET 2.312134 -31.513222 90.723022
					CHANNELS 3 Zrotation Yrotation Xrotation
					JOINT joint_7
					{
						OFFSET -0.486389 -150.827950 -17.660034
						CHANNELS 3 Zrotation Yrotation Xrotation
						JOINT joint_8
						{
							OFFSET 15.633850 -16.961029 -297.395020
							CHANNELS 3 Zrotation Yrotation Xrotation
							JOINT joint_9
							{
								OFFSET 5.600098 1.609863 -262.782959
								CHANNELS 3 Zrotation Yrotation Xrotation
								End Site
								{
									OFFSET 0.000000 0.000000 0.000000
								}
							}
						}
					}
				}
				JOINT joint_10
				{
					OFFSET 1.012756 37.963039 88.243042
					CHANNELS 3 Zrotation Yrotation Xrotation
					JOINT joint_11
					{
						OFFSET -2.397430 150.471996 -20.492065
						CHANNELS 3 Zrotation Yrotation Xrotation
						JOINT joint_12
						{
							OFFSET -10.575745 12.779427 -297.765015
							CHANNELS 3 Zrotation Yrotation Xrotation
							JOINT joint_13
							{
								OFFSET 196.311081 2.689713 -176.286011
								CHANNELS 3 Zrotation Yrotation Xrotation
								End Site
								{
									OFFSET 0.000000 0.000000 0.000000
								}
							}
						}
					}
				}
			}
		}
	}
	JOINT joint_14
	{
		OFFSET 1.244965 -96.891136 -118.152039
		CHANNELS 3 Zrotation Yrotation Xrotation
		JOINT joint_15
		{
			OFFSET -2.982971 -16.401871 -443.439026
			CHANNELS 3 Zrotation Yrotation Xrotation
			JOINT joint_16
			{
				OFFSET -42.052063 -15.386002 -460.966980
				CHANNELS 3 Zrotation Yrotation Xrotation
				JOINT joint_17
				{
					OFFSET 177.916595 102.818184 -88.655001
					CHANNELS 3 Zrotation Yrotation Xrotation
					End Site
					{
						OFFSET 0.000000 0.000000 0.000000
					}
				}
			}
		}
	}
	JOINT joint_18
	{
		OFFSET 1.788635 96.476997 -118.463074
		CHANNELS 3 Zrotation Yrotation Xrotation
		JOINT joint_19
		{
			OFFSET -9.555542 8.093691 -443.574951
			CHANNELS 3 Zrotation Yrotation Xrotation
			JOINT joint_20
			{
				OFFSET -48.427551 9.415819 -460.500023
				CHANNELS 3 Zrotation Yrotation Xrotation
				JOINT joint_21
				{
					OFFSET 204.978119 20.223980 -87.523996
					CHANNELS 3 Zrotation Yrotation Xrotation
					End Site
					{
						OFFSET 0.000000 0.000000 0.000000
					}
				}
			}
		}
	}
}
MOTION
Frames: 10
Frame Time: 0.016667
-217.044479 -101.856209 1145.041992 -7.392094 7.072725 -2.231932 0.627927 -0.681061 -5.346178 0.987508 0.072238 1.103204 0.843558 -0.212907 -0.840326 0.701358 1.040185 -2.637132 0.000000 0.000000 0.000000 6.197196 0.908461 0.983343 -1.140140 1.778311 -3.520190 0.083369 -8.633235 8.245890 0.000000 0.000000 0.000000 -1.571860 1.226039 -2.510445 0.449289 1.522830 5.682268 2.770620 40.882883 0.649235 0.000000 0.000000 0.000000 -0.504567 -12.267085 -1.052040 -1.688982 6.615008 -0.292793 -1.508564 1.907393 -1.845136 0.000000 0.000000 0.000000 -0.696340 -0.667278 4.419827 -0.488172 9.765214 -1.946382 -1.216429 -1.300189 -0.367462 0.000000 0.000000 0.000000 
-209.790329 -104.590118 1143.302002 -6.956866 7.025335 -1.959207 0.533424 -0.215900 -5.990470 0.974165 -0.028928 1.301473 0.805037 -0.138924 -0.906791 0.714394 1.246089 -2.690348 0.000000 0.000000 0.000000 6.482940 0.559506 0.943511 -1.138186 1.466370 -3.128024 0.061306 -8.690358 8.288012 0.000000 0.000000 0.000000 -1.719032 0.914590 -2.643100 0.515752 1.252259 5.821250 2.796152 40.332411 0.857236 0.000000 0.000000 0.000000 -0.873363 -12.110319 -1.401994 -2.053030 5.343248 -0.508701 -1.888252 2.121214 -2.153678 0.000000 0.000000 0.000000 -1.179754 -2.042664 5.125538 -0.915941 13.096957 -3.142447 -2.104596 -1.715685 -0.681953 0.000000 0.000000 0.000000 
-203.065369 -107.776329 1140.682007 -6.452352 7.051182 -1.723161 0.407561 0.201042 -6.552800 0.914264 -0.099563 1.405207 0.724671 -0.065484 -1.002576 0.727712 1.385117 -2.732162 0.000000 0.000000 0.000000 7.033924 0.250587 0.919589 -1.177380 1.231026 -2.773452 0.029168 -8.969543 8.604272 0.000000 0.000000 0.000000 -1.852195 0.643532 -2.762033 0.651194 1.027773 5.980416 2.873860 39.421249 1.146728 0.000000 0.000000 0.000000 -1.166112 -12.405463 -1.973743 -2.487439 6.183769 -0.174270 -2.293075 1.612602 -2.055492 0.000000 0.000000 0.000000 -1.752437 -3.987260 6.228397 -1.461889 17.189060 -4.774024 -3.375436 -2.022291 -1.151630 0.000000 0.000000 0.000000 
-196.119583 -110.933167 1137.900024 -5.892072 6.972828 -1.639187 0.299197 0.625221 -6.885838 0.861176 -0.152718 1.443253 0.657719 0.011749 -1.084852 0.738568 1.498227 -2.764974 0.000000 0.000000 0.000000 7.583127 0.009932 0.946112 -1.210182 1.063340 -2.453035 -0.008408 -9.143709 8.752250 0.000000 0.000000 0.000000 -1.911509 0.365058 -2.946244 0.755193 0.784154 6.154548 2.924320 38.552668 1.427419 0.000000 0.000000 0.000000 -1.448736 -12.307144 -2.328236 -2.912137 7.084515 0.198758 -2.701145 0.892544 -1.835572 0.000000 0.000000 0.000000 -2.432594 -5.905033 7.616762 -2.187053 21.394165 -6.613637 -5.091696 -2.013533 -1.814760 0.000000 0.000000 0.000000 
-188.232605 -113.957146 1135.302002 -5.235495 6.636845 -1.788319 0.238765 1.052230 -6.932060 0.851262 -0.170768 1.468505 0.638409 0.092389 -1.126274 0.743337 1.615092 -2.787782 0.000000 0.000000 0.000000 7.939586 -0.127924 1.101962 -1.193502 0.969917 -2.189855 -0.039548 -8.993384 8.338211 0.000000 0.000000 0.000000 -1.886645 0.068249 -3.282654 0.764959 0.504248 6.381279 2.900534 37.962917 1.662160 0.000000 0.000000 0.000000 -1.834033 -11.111571 -2.111152 -3.302291 6.624255 0.276815 -3.099142 0.201483 -1.627845 0.000000 0.000000 0.000000 -3.307318 -7.412015 9.272158 -3.186213 25.452827 -8.678579 -7.438825 -1.579086 -2.745763 0.000000 0.000000 0.000000 
-179.684280 -117.038002 1132.613037 -4.458116 6.091770 -2.130207 0.190911 1.509088 -6.750227 0.867727 -0.174711 1.470424 0.650030 0.171909 -1.137995 0.742480 1.721379 -2.798495 0.000000 0.000000 0.000000 8.197764 -0.176840 1.379096 -1.140389 0.949720 -1.986500 -0.060461 -8.622666 7.535737 0.000000 0.000000 0.000000 -1.798267 -0.227980 -3.746284 0.712118 0.214004 6.665594 2.825389 37.504174 1.873299 0.000000 0.000000 0.000000 -2.317892 -9.094555 -1.474359 -3.665118 5.522159 0.241636 -3.479658 -0.580521 -1.358764 0.000000 0.000000 0.000000 -4.343879 -8.693928 11.224758 -4.435764 29.512426 -11.019958 -10.570369 -0.598589 -4.000155 0.000000 0.000000 0.000000 
-171.508728 -119.189171 1130.412964 -3.730029 5.600824 -2.521829 0.135936 2.010829 -6.444963 0.906190 -0.219351 1.439954 0.690841 0.271918 -1.120651 0.735428 1.805038 -2.784476 0.000000 0.000000 0.000000 8.452010 -0.199809 1.588737 -1.068648 0.952236 -1.757785 -0.068072 -8.014175 6.891547 0.000000 0.000000 0.000000 -1.479865 -0.594899 -4.179473 0.565477 -0.187314 6.801553 2.652114 37.272413 2.001673 0.000000 0.000000 0.000000 -2.766729 -7.108439 -0.828741 -3.933897 4.315315 0.229697 -3.761018 -1.153868 -1.160984 0.000000 0.000000 0.000000 -5.237171 -9.947711 13.105912 -5.624381 33.116292 -12.986768 -13.871090 0.465226 -5.297615 0.000000 0.000000 0.000000 
-164.608475 -119.530243 1129.125000 -3.188691 5.368517 -2.887005 0.082077 2.543430 -5.989959 0.962185 -0.328534 1.347673 0.760951 0.428977 -1.064676 0.722119 1.857354 -2.739126 0.000000 0.000000 0.000000 8.831930 -0.232694 1.572878 -0.998541 0.958482 -1.448555 -0.065750 -7.097847 6.869004 0.000000 0.000000 0.000000 -0.705161 -1.138756 -4.546365 0.220970 -0.848573 6.660590 2.275117 37.500461 1.955407 0.000000 0.000000 0.000000 -3.050213 -5.783214 -0.465426 -4.086766 3.379624 0.365780 -3.908265 -1.378808 -1.097978 0.000000 0.000000 0.000000 -5.902131 -11.395225 14.719669 -6.667865 36.250907 -14.287114 -17.033565 0.915783 -6.468953 0.000000 0.000000 0.000000 
-158.603134 -118.440842 1128.521973 -2.756524 5.298951 -3.270185 0.032018 3.097560 -5.353852 1.034848 -0.483249 1.192808 0.861659 0.635581 -0.963421 0.700513 1.878517 -2.658583 0.000000 0.000000 0.000000 9.302050 -0.252247 1.423251 -0.930515 0.987168 -1.106959 -0.059161 -5.887456 7.283665 0.000000 0.000000 0.000000 0.463506 -1.822759 -4.930025 -0.309970 -1.721470 6.312513 1.708970 38.157031 1.772158 0.000000 0.000000 0.000000 -3.222517 -4.800757 -0.240190 -4.153893 2.527401 0.601296 -3.957585 -1.375625 -1.118145 0.000000 0.000000 0.000000 -6.444062 -12.999737 16.201593 -7.670997 39.155956 -15.157824 -20.262887 0.816349 -7.603464 0.000000 0.000000 0.000000 
-152.441605 -116.900475 1128.488037 -2.348533 5.326089 -3.582197 -0.025025 3.561368 -4.890852 1.102336 -0.621672 1.053490 0.959120 0.809284 -0.878737 0.666565 1.884341 -2.529810 0.000000 0.000000 0.000000 9.550805 -0.275643 1.303957 -0.854406 0.982742 -0.730662 -0.051184 -4.723810 7.625723 0.000000 0.000000 0.000000 1.456245 -2.368850 -5.087523 -0.633469 -2.422506 5.727665 1.316630 38.507498 1.760721 0.000000 0.000000 0.000000 -3.380029 -3.924039 -0.057674 -4.174558 1.631673 0.728319 -3.967457 -1.246379 -1.193116 0.000000 0.000000 0.000000 -6.603145 -14.619768 17.437339 -8.252743 41.258251 -15.181543 -21.988690 0.498089 -8.193425 0.000000 0.000000 0.000000 
